<?xml version="1.0" standalone="no"?>
<!DOCTYPE svg PUBLIC "-//W3C//DTD SVG 20010904//EN"
 "http://www.w3.org/TR/2001/REC-SVG-20010904/DTD/svg10.dtd">
<svg version="1.0" xmlns="http://www.w3.org/2000/svg"
 width="512.000000pt" height="512.000000pt" viewBox="0 0 512.000000 512.000000"
 preserveAspectRatio="xMidYMid meet">

<g transform="translate(0.000000,512.000000) scale(0.100000,-0.100000)"
fill="#000000" stroke="none">
<path d="M2865 5113 c-210 -25 -337 -55 -449 -107 -267 -123 -417 -334 -493
-692 -13 -63 -17 -161 -22 -474 l-6 -395 -262 -3 -263 -2 0 -440 0 -440 260 0
260 0 0 -1280 0 -1280 530 0 530 0 0 1280 0 1280 354 0 354 0 6 48 c9 66 86
802 86 819 0 10 -75 13 -397 15 l-398 3 -3 195 c-1 107 2 247 7 312 7 98 13
124 37 169 55 102 129 119 516 119 l238 0 0 440 0 440 -427 -1 c-236 -1 -441
-4 -458 -6z"/>
</g>
</svg>
