<?xml version="1.0" encoding="UTF-8"?>
<!DOCTYPE svg PUBLIC "-//W3C//DTD SVG 1.1//EN" "http://www.w3.org/Graphics/SVG/1.1/DTD/svg11.dtd">
<!-- Creator: CorelDRAW (Versión de evaluación) -->
<svg xmlns="http://www.w3.org/2000/svg" xml:space="preserve" width="300mm" height="300mm" version="1.1" style="shape-rendering:geometricPrecision; text-rendering:geometricPrecision; image-rendering:optimizeQuality; fill-rule:evenodd; clip-rule:evenodd"
viewBox="0 0 30000 30000"
 xmlns:xlink="http://www.w3.org/1999/xlink"
 xmlns:xodm="http://www.corel.com/coreldraw/odm/2003">
 <defs>
  <style type="text/css">
   <![CDATA[
    .str0 {stroke:#08696E;stroke-width:50;stroke-miterlimit:22.9256}
    .fil1 {fill:none}
    .fil2 {fill:#282829}
    .fil0 {fill:#1298A0}
    .fil3 {fill:#282829;fill-rule:nonzero}
   ]]>
  </style>
 </defs>
 <g id="Capa_x0020_1">
  <metadata id="CorelCorpID_0Corel-Layer"/>
  <path class="fil0 str0" d="M6457.14 15897.48c-253.61,0 -390.31,-50.37 -575.67,-211.73 -120.37,-104.78 -228.66,-321.17 -228.66,-482.54 0,-179.09 -5.95,-232.54 79.01,-403.59 126.19,-254.11 382.35,-417.67 699.92,-417.67 572.48,0 902.62,620.87 688.77,1061.29 -83.87,172.75 -193.56,297.39 -364.66,380.41 -71.12,34.5 -197.17,73.83 -298.71,73.83zm838.2 -2125.13c-221.83,-148.55 -553.79,-233.07 -829.59,-237.6l-243.36 19.78c-66.33,9.28 -158.58,29.33 -221.46,49.47 -31.6,10.12 -67.82,21.54 -101.37,34.1 -28.4,10.64 -67.11,23.51 -97.32,38.15 -435.58,211.16 -728.34,520.76 -884.98,986.14 -126.85,376.85 -94.31,821.59 69.46,1173.05 87.18,187.08 191.05,327.83 333.77,470.55 130.36,130.36 301.05,258.11 475.03,329.31 115.26,47.16 169.73,69.24 297.45,100.48 440.8,107.82 908.89,6.6 1266.83,-231.98 231.86,-154.55 431.01,-381.06 553.74,-631.59 141.77,-289.39 160.74,-481.59 160.74,-804.46 0,-113.47 -31.29,-269.88 -58.16,-356.71l-85.51 -227.76c-52.73,-114.99 -58.21,-56 65.35,-179.65 122.65,-122.74 657.91,-671.9 738.72,-726.02 98.85,147.62 201.07,323.14 269.84,492.16 250.96,616.74 286.7,1291.35 72.03,1932.51 -106.47,317.99 -267.8,606.78 -474.67,863.07 -17.12,21.21 -19.65,26.06 -38.66,46 -95.05,99.78 -180.65,208.15 -290.63,293.57 -162.54,126.26 -179.05,156.87 -387.25,281.62 -75.35,45.15 -139.66,78 -220.28,118.38 -296.99,148.73 -728.92,265.29 -1080.92,265.29 -544.66,0 -769.09,-54.19 -1241.02,-249.11l-216.94 -113.26c-70.77,-42.7 -136.43,-82.73 -201.48,-128.72 -129.55,-91.59 -245.64,-190.56 -357.74,-302.66 -135.64,-135.64 -259,-284.79 -365.44,-447.36 -23.65,-36.12 -43.18,-71.2 -63.77,-105.56l-113.26 -216.94c-126.7,-253.45 -259.75,-686.13 -259.75,-1061.05 0,-473.23 19.23,-637.79 163.96,-1063.72 26.98,-79.41 63.8,-162.49 98.51,-231.69 203.15,-405.01 449.87,-729.87 816.42,-1003.9 35.48,-26.53 62.98,-48.23 97.95,-71.39 654.21,-433.22 1287.44,-567.76 2081.79,-430.73 277.34,47.85 534.84,160.32 779.93,286.88 120.19,62.06 221.5,138.8 330.24,211.62 -32.88,49.11 -155.02,159.25 -205.31,209.55l-524.94 516.46c-33.76,33.77 -70.76,78.82 -107.95,103.72zm1507.07 -3344.33c0,138.77 116.07,157.37 152.06,190.45l745.41 774.75c-38.38,57.31 -597.71,604.37 -687.86,683.74 -20.14,17.75 -35.67,35.55 -55.09,54.97 -34.16,34.16 -75,83.05 -112.19,107.95 -78.23,-52.38 -143.81,-113.09 -223.47,-165.99 -119.92,-79.64 -237.31,-160.98 -366.25,-226.42l-334.44 -156.62c-332.66,-133.79 -658.61,-210.42 -1020.66,-257.81 -377.05,-49.35 -834.56,-18.22 -1196.41,70.14 -253.34,61.87 -468.71,131.28 -685.56,228.85 -52.26,23.51 -102.46,46.86 -155.36,73.23 -28.63,14.27 -45.99,22.64 -71.74,38.33 -118.46,72.12 -246.35,133.94 -358.53,217.2 -89.21,66.22 -175.87,125.2 -259.29,197.91 -123.25,107.43 -253.96,209.86 -356.23,338.04l-210.5 246.7c-235.27,317.19 -439.31,656.84 -564.45,1035.75 -226.39,685.48 -272.31,1322.75 -121.73,2033.17 45.59,215.07 121.28,425.88 201.16,628.58 38.38,97.43 83.59,183.42 129.8,276.6 13.66,27.54 20.73,40.14 35.95,65.64l115.27 198c80.13,124.8 165.51,244.85 258.89,359.18 32.76,40.1 67.69,75.67 95.09,116.58 -59.38,39.76 -919.76,915.52 -1039.29,1035.05 -26.04,26.05 -146.05,127.88 -146.05,158.75l8.47 1193.8c108.14,-72.42 470.37,-490.03 620.56,-615.57 27.53,-23.01 37.39,-29.42 63.14,-55.4l681.55 -681.58c81.38,-81.38 411.73,-394.57 455.08,-459.32 37.38,19.78 67.44,42.14 103.29,66.05l209.98 128.69c39.65,21.47 71.38,39.93 115.71,62.09 537.48,268.65 1028.4,412.04 1696.16,412.04 154.06,0 284.28,-13.9 423.1,-25.63 255.85,-21.61 499.15,-85.64 733.64,-163.83 61.9,-20.64 109.17,-36.98 168.95,-59.64 58.49,-22.18 103.1,-43.73 160.87,-67.73 30.06,-12.49 44.81,-22.78 74.88,-35.2 261.43,-107.98 546.94,-310.19 763.32,-481.28 76.22,-60.26 200.44,-185.93 240.64,-216.55 42.15,-32.12 69.24,-73.73 107.94,-112.2 189.7,-188.57 348.55,-412.53 485.19,-640.87 57.63,-96.28 109.21,-192.49 160.53,-296.68 12.27,-24.92 21.27,-51.54 33.64,-76.41 92.16,-185.28 150.49,-384.95 208.19,-587.68 152.1,-534.35 147.45,-1167.83 36.84,-1706.09 -19.32,-94 -45.19,-190.53 -72.55,-283.06 -27.38,-92.64 -57.5,-184.73 -92.53,-271.53 -118.67,-294.08 -256.03,-554.93 -435.39,-809.2 -24.6,-34.88 -56.78,-73.19 -76.26,-110.01 46.38,-24.54 75.21,-62.52 112.18,-99.48l639.11 -639.36c38.44,-38.64 81.91,-62.44 112.31,-107.83 34.76,23.28 171.39,162.7 205.25,201.15l203.26 211.6c71.22,71.22 136.2,136.25 207.44,207.44 17.66,17.64 34.83,32.35 50.54,51.05 69.42,82.63 77.07,124.63 222.51,124.63 81.46,0 133.33,-36.66 170.83,-83.17 19.82,-24.59 34.87,-53.55 39.11,-88.47 3.1,-25.57 -4.57,-42.93 1.68,-61.64 7.55,-22.58 -14.1,26.43 4.77,-8.47 8.12,-15.02 12.21,16.15 12.21,-20.72l0 -2108.19c0,-82.43 -93.34,-140.91 -159.96,-161.78 -5.36,-1.68 -18.42,-5.6 -25.47,-8.4l-11.64 -5.29c-58.43,-24.64 -189.96,-10.8 -260.13,-10.8 -151.06,0 -1781.21,10.39 -1852.17,-2.04l-112.1 -14.89c-101.21,0 -203.2,94.31 -203.2,194.73z"/>
  <g id="_2047415070816">
   <path class="fil1" d="M14758.27 14191.83c34.64,-12.1 34.25,-23.14 56.15,-44.73 46.07,-45.42 101.36,-102.99 160.67,-126.19 44.87,-17.56 10.98,-19.19 61.78,-32.18 106.48,-27.22 -11.24,-23.63 152.19,-37.24 42.71,-3.56 47.19,-16.14 77.32,-22.09 58.62,-11.58 111.5,14.11 162.03,20.75 30.55,4.02 61.5,1.58 90.68,5.04l141.88 52.69c23.66,17.19 38.61,20.55 64.15,37.5 48.94,32.51 28.54,22.57 48.99,42.68l22.61 20.5c1.27,1.26 2.89,3.17 4.13,4.43l59.59 58.28c33.45,28.96 104.9,152.32 116.59,197.81 14.21,55.27 19.4,23.88 31.5,57.48 7.66,21.3 3.29,57.72 10.85,83.12 18.85,63.29 29.57,39.59 23.4,173.31 -2.1,45.55 -4.85,40.34 -20.25,71.52 -17.07,34.56 -7.24,39.12 -12.7,80.32 -6.41,48.4 -16.03,25.8 -28.91,63.67 -21.65,63.66 6.49,13.29 -31,71.03 -29.64,45.66 0.9,34.97 -98.78,138.22 -26.52,27.47 -43.81,51.7 -82.22,65.44l-5.16 33.8 39.98 -23.09c19.66,-13.1 86.96,-93.08 108.03,-116.12 1.56,-1.6 26.87,-29.05 28.45,-31.1 18.61,-24.15 9.26,-17.69 21.05,-39.36 24.67,-45.3 8.86,13.69 33.32,-69.9 14.63,-49.99 6.8,-10.73 22.18,-41.94 13.76,-27.93 5.23,-70.48 18.7,-100.24 15.82,-34.94 24.67,-21.36 25.37,-76.92 0.96,-76.42 8.76,-147.45 -19.55,-201.85 -34.67,-66.63 7.17,-97.93 -30.8,-136.24l-23.81 -40.64c-12.41,-35.77 0.53,-6.19 -20.44,-34.85l-41.21 -71.16c-46.77,-91.95 -11.42,-18.63 -78.62,-96.93 -35.22,-41.04 -57.47,-51.5 -88.47,-81.3 -15.98,-15.36 -15.32,18.91 -19.07,-31.17 -81.91,-5.03 -40.65,-21.87 -96.26,-39.46l-92.03 -34.77c-25.15,-4.1 -53.71,-0.26 -79.52,-5.84 -62.77,-13.58 6.47,-28.28 -138.21,-30.78 -209.25,-3.62 -88.14,23.75 -220.21,32.86 -64.36,4.43 -31.32,4.59 -64.61,23.85 -34.56,19.99 -30.22,3.44 -59.42,23.65l-54.67 29.83c-20.11,12.22 0.69,-0.29 -21.32,20.54l-32.29 26.61c-1.24,1.13 -2.96,2.96 -4.21,4.13 -55.53,51.77 -104.87,70.76 -117.85,127.03"/>
   <path class="fil2" d="M22214.31 13588.91l282.22 0c543.69,0 1194.05,534.32 1234.72,1023.05l-2681.11 0c13.61,-163.58 72.44,-269.64 147.05,-382.12 221.16,-333.41 649.44,-640.93 1017.12,-640.93zm-2469.45 1516.93l0 0c0,395.68 86.82,814.1 211.64,1093.64 397.34,889.87 1309.16,1552.19 2328.36,1552.19 670.1,0 1126.13,-45.44 1693.9,-422.77 423.66,-281.56 566.36,-464.76 846.1,-882.5l-1199.44 -352.78c-289.55,432.39 -748.15,529.16 -1270,529.16 -375.54,0 -833.58,-250.91 -1009.04,-472.63 -54.53,-68.91 -96.48,-113.21 -140.32,-177.17 -89.97,-131.27 -126.09,-272.85 -191.2,-408.53l3986.39 0c0,-442.54 121.76,-814.25 -155.33,-1502.71 -63.29,-157.25 -136.34,-276.81 -221.06,-413.94 -134.05,-216.97 -402.82,-497.89 -605.87,-664.13 -745.56,-610.39 -1993.36,-696.78 -2851.76,-265.45 -856.31,430.28 -1422.37,1278.23 -1422.37,2387.62z"/>
   <path class="fil2" d="M12759.88 13694.74l2363.6 0c-39.72,148.75 -1640.44,2081.01 -1807.28,2284.93 -429.95,525.52 -558.46,627.58 -591.6,841.76l0 789.13 4162.76 0 0 -1093.61 -2469.43 0c84.73,-160.13 730.55,-925.89 901.97,-1144.13l614.97 -760.86c84.18,-107.79 917.22,-1086.94 917.22,-1164.16l0 -846.67 -4092.21 0 0 1093.61z"/>
   <polygon class="fil2" points="27012.08,10378.63 25777.36,10378.63 25777.36,17610.56 27012.08,17610.56 "/>
   <polygon class="fil2" points="17698.75,17610.56 18933.47,17610.56 18933.47,12601.13 17698.75,12601.13 "/>
   <path class="fil2" d="M17557.64 11295.85c0,363.38 76.4,684.5 483.34,822.41 656.56,222.5 1229.82,-378.59 1009.73,-1009.73 -259.54,-744.29 -1493.07,-598.3 -1493.07,187.32z"/>
   <path class="fil3" d="M13577.6 18234.27c-228.6,0 -423.33,76.2 -575.73,237.06 -152.4,152.4 -228.6,338.67 -228.6,575.74 0,228.6 76.2,414.86 228.6,575.73 152.4,152.4 347.13,228.6 575.73,228.6 160.87,0 304.8,-42.33 431.8,-118.53 135.47,-76.2 228.6,-186.27 296.33,-321.74l-287.86 -101.6c-84.67,152.4 -254,254 -440.27,254 -135.47,0 -262.47,-50.8 -355.6,-152.4 -93.13,-93.13 -143.93,-220.13 -143.93,-364.06 0,-152.4 50.8,-279.4 143.93,-372.54 93.13,-101.6 220.13,-152.4 355.6,-152.4 186.27,0 355.6,101.6 440.27,262.47l287.86 -110.07c-67.73,-135.46 -160.86,-237.06 -296.33,-321.73 -127,-76.2 -270.93,-118.53 -431.8,-118.53zm1667.93 0c-228.6,0 -414.86,76.2 -575.73,237.06 -152.4,152.4 -228.6,338.67 -228.6,575.74 0,228.6 76.2,414.86 228.6,575.73 160.87,152.4 347.13,228.6 575.73,228.6 237.07,0 431.8,-76.2 584.2,-228.6 152.4,-160.87 228.6,-347.13 228.6,-575.73 0,-237.07 -76.2,-423.34 -228.6,-575.74 -152.4,-160.86 -347.13,-237.06 -584.2,-237.06zm-491.06 812.8c0,-152.4 42.33,-279.4 135.46,-372.54 101.6,-101.6 220.14,-152.4 355.6,-152.4 143.94,0 262.47,50.8 355.6,152.4 101.6,93.14 143.94,220.14 143.94,372.54 0,143.93 -42.34,270.93 -143.94,364.06 -93.13,101.6 -211.66,152.4 -355.6,152.4 -135.46,0 -254,-50.8 -355.6,-152.4 -93.13,-93.13 -135.46,-220.13 -135.46,-364.06zm1803.4 770.46l0 -1032.93 812.8 1032.93 262.46 0 0 -1549.4 -279.4 0 0 1041.4 -821.26 -1041.4 -262.47 0 0 1549.4 287.87 0zm2413 -1236.13c-33.87,-93.13 -101.6,-177.8 -194.74,-245.53 -101.6,-67.74 -220.13,-101.6 -355.6,-101.6 -152.4,0 -279.4,42.33 -381,135.46 -101.6,84.67 -143.93,194.74 -143.93,338.67 0,152.4 76.2,270.93 220.13,355.6 67.74,33.87 186.27,76.2 372.54,127 59.26,25.4 67.73,25.4 127,50.8 25.4,8.47 50.8,25.4 59.26,33.87 25.4,25.4 59.27,67.73 59.27,110.06 0,110.07 -118.53,177.8 -279.4,177.8 -160.87,0 -287.87,-76.2 -313.27,-177.8l-296.33 84.67c33.87,110.07 110.07,203.2 220.13,270.93 101.6,76.2 237.07,110.07 389.47,110.07 169.33,0 304.8,-42.33 414.87,-135.47 110.06,-84.66 160.86,-211.66 160.86,-355.6 0,-118.53 -50.8,-228.6 -101.6,-279.4 -33.86,-33.86 -67.73,-59.26 -110.06,-84.66 -101.6,-50.8 -135.47,-59.27 -237.07,-84.67 -127,-42.33 -211.67,-67.73 -254,-84.67 -93.13,-33.86 -135.47,-84.66 -135.47,-143.93 0,-93.13 101.6,-160.87 228.6,-160.87 127,0 228.6,67.74 254,143.94l296.34 -84.67zm1303.86 618.07c0,101.6 -33.86,194.73 -101.6,270.93 -76.2,67.73 -169.33,110.07 -279.4,110.07 -101.6,0 -194.73,-42.34 -262.46,-110.07 -76.2,-76.2 -110.07,-169.33 -110.07,-270.93l0 -931.34 -296.33 0 0 931.34c0,186.26 59.26,338.66 194.73,465.66 127,127 287.87,186.27 474.13,186.27 194.74,0 355.6,-59.27 482.6,-186.27 135.47,-127 194.74,-279.4 194.74,-465.66l0 -931.34 -296.34 0 0 931.34zm533.4 -931.34l0 1549.4 1075.27 0 0 -270.93 -778.93 0 0 -1278.47 -296.34 0zm1473.2 279.4l0 1270 296.34 0 0 -1270 516.46 0 0 -279.4 -1320.8 0 0 279.4 508 0zm1286.94 1270l0 -1549.4 -296.34 0 0 1549.4 296.34 0zm541.86 0l0 -1032.93 821.27 1032.93 262.47 0 0 -1549.4 -287.87 0 0 1041.4 -812.8 -1041.4 -262.47 0 0 1549.4 279.4 0zm2116.67 -1583.26c-237.07,0 -431.8,76.2 -584.2,237.06 -160.87,152.4 -237.07,338.67 -237.07,575.74 0,228.6 76.2,414.86 228.6,575.73 152.4,152.4 347.14,228.6 575.74,228.6 228.6,0 423.33,-76.2 575.73,-237.07 152.4,-152.4 228.6,-347.13 228.6,-575.73 0,-16.93 -8.47,-42.33 -8.47,-76.2l-821.26 0 0 270.93 491.06 0c-33.86,101.6 -93.13,177.8 -186.26,237.07 -84.67,59.27 -177.8,93.13 -287.87,93.13 -135.47,0 -245.53,-50.8 -347.13,-152.4 -93.14,-93.13 -135.47,-220.13 -135.47,-364.06 0,-152.4 42.33,-279.4 143.93,-372.54 93.14,-101.6 220.14,-152.4 364.07,-152.4 194.73,0 355.6,101.6 448.73,262.47l279.4 -110.07c-59.26,-135.46 -160.86,-237.06 -287.86,-321.73 -135.47,-76.2 -279.4,-118.53 -440.27,-118.53z"/>
  </g>
 </g>
</svg>
